<svg xmlns="http://www.w3.org/2000/svg" version="1.1" xmlns:xlink="http://www.w3.org/1999/xlink" xmlns:svgjs="http://svgjs.dev/svgjs" width="1000" height="1000" viewBox="0 0 1000 1000"><rect width="1000" height="1000" fill="#ffffff"></rect><g transform="matrix(0.7,0,0,0.7,150.53628578824947,178.9601666840142)"><svg viewBox="0 0 269 247" data-background-color="#89939e" preserveAspectRatio="xMidYMid meet" height="918" width="1000" xmlns="http://www.w3.org/2000/svg" xmlns:xlink="http://www.w3.org/1999/xlink"><g id="tight-bounds" transform="matrix(1,0,0,1,-0.206086945844703,-0.09999817779097953)"><svg viewBox="0 0 269.41217391304343 247.2" height="247.2" width="269.41217391304343"><g><svg viewBox="0 0 269.41217391304343 247.2" height="247.2" width="269.41217391304343"><g><svg viewBox="0 0 269.41217391304343 247.2" height="247.2" width="269.41217391304343"><g id="textblocktransform"><svg viewBox="0 0 269.41217391304343 247.2" height="247.2" width="269.41217391304343" id="textblock"><g><svg viewBox="0 0 269.41217391304343 247.2" height="247.2" width="269.41217391304343"><g transform="matrix(1,0,0,1,0,0)"><svg width="269.41217391304343" viewBox="0.05000000447034836 -38.04999923706055 56.400001525878906 51.75" height="247.2" data-palette-color="#000000"><path d="M25.6-32.3L25.6-32.3Q24.8-32.65 24.05-32.65 23.3-32.65 22.55-31.7 21.8-30.75 21.55-28.95L21.55-28.95 19.05-11.45Q25.35-14.2 27.1-15.55L27.1-15.55 29-12.25Q27.5-11.1 25.4-10.2 23.3-9.3 21.35-8.53 19.4-7.75 18.45-7.35L18.45-7.35 16.8 4.35Q16.15 9.15 13.38 11.43 10.6 13.7 7.28 13.7 3.95 13.7 2 11.28 0.05 8.85 0.05 5.85L0.05 5.85Q0.05-2 11.55-8.1L11.55-8.1 12.05-12.15Q13-20.75 14-27.1L14-27.1Q11.15-25.95 8.03-25.95 4.9-25.95 2.98-27.65 1.05-29.35 1.05-32.1 1.05-34.85 3.03-36.43 5-38 8-38L8-38Q9.85-38 13.33-36.85 16.8-35.7 18.7-35.7L18.7-35.7Q22.1-35.7 24.4-37.45L24.4-37.45Q25.65-35.7 25.65-33.3L25.65-33.3Q25.65-32.8 25.6-32.3ZM6-30.75L6-30.75Q6-30 6.83-29.45 7.65-28.9 9.33-28.9 11-28.9 13.7-30.4L13.7-30.4Q11.75-30.85 9.7-31.43 7.65-32 7.25-32L7.25-32Q6-32 6-30.75ZM9.8 5.6L11-3.75Q3.85 0.55 3.85 5.35L3.85 5.35Q3.85 6.7 4.55 7.65L4.55 7.65Q5.35 8.75 6.58 8.75 7.8 8.75 8.7 8 9.6 7.25 9.8 5.6L9.8 5.6ZM23-27.05L23-27.05Q23-31.8 27.2-34.93 31.4-38.05 38.3-38.05L38.3-38.05Q41.95-38.05 44.85-37.33 47.75-36.6 49.45-35.5 51.15-34.4 52.3-32.95L52.3-32.95Q54.2-30.45 54.17-27.38 54.15-24.3 51.75-21.9 49.35-19.5 45.95-19.4L45.95-19.4Q50.2-19.1 53.32-16.6 56.45-14.1 56.45-10.3L56.45-10.3Q56.45-5.3 52.6-2.5 48.75 0.3 43.22 0.3 37.7 0.3 35.7-1.15L35.7-1.15 37.25-5.35Q39.45-4.2 42.37-4.2 45.3-4.2 47.15-5.93 49-7.65 49-10.5 49-13.35 46.47-15.3 43.95-17.25 39.6-17.25L39.6-17.25 40.05-20.95Q43.05-20.95 45.12-22.38 47.2-23.8 47.27-26.65 47.35-29.5 44.7-31.45L44.7-31.45Q41.85-33.5 36.9-33.5L36.9-33.5Q33.65-33.5 30.55-31.83 27.45-30.15 27.45-27.35L27.45-27.35Q27.45-26 28.55-25.08 29.65-24.15 31.45-23.95L31.45-23.95 30.9-20.25Q27.1-20.4 25.05-22.4 23-24.4 23-27.05ZM37.3-9.6Q36.5-4.25 34.2-2.02 31.9 0.2 28.8 0.2 25.7 0.2 24.1-1.4 22.5-3 22.5-5.5L22.5-5.5Q22.5-11.4 31.45-15.55L31.45-15.55Q31.7-17.65 32.17-21.23 32.65-24.8 32.92-27 33.2-29.2 33.3-29.9L33.3-29.9Q35.35-31.2 38.05-31.2L38.05-31.2Q39.3-31.2 40.45-30.95L40.45-30.95 37.3-9.6ZM26.2-6.15L26.2-6.15Q26.2-4.35 27.9-4.35L27.9-4.35Q28.6-4.35 29.37-5.28 30.15-6.2 30.45-8.2L30.45-8.2 30.9-11.3Q26.2-8.65 26.2-6.15Z" opacity="1" transform="matrix(1,0,0,1,0,0)" fill="#000000" class="wordmark-text-0" data-fill-palette-color="primary" id="text-0"></path></svg></g></svg></g></svg></g></svg></g><g></g></svg></g><defs></defs></svg><rect width="269.41217391304343" height="247.2" fill="none" stroke="none" visibility="hidden"></rect></g></svg></g></svg>