<svg xmlns="http://www.w3.org/2000/svg" version="1.1" xmlns:xlink="http://www.w3.org/1999/xlink" xmlns:svgjs="http://svgjs.dev/svgjs" width="1000" height="1000" viewBox="0 0 1000 1000"><rect width="1000" height="1000" fill="#000000"></rect><g transform="matrix(0.7,0,0,0.7,150.0000000000001,106.25)"><svg viewBox="0 0 320 360" data-background-color="#ffffff" preserveAspectRatio="xMidYMid meet" height="1125" width="1000" xmlns="http://www.w3.org/2000/svg" xmlns:xlink="http://www.w3.org/1999/xlink"><g id="tight-bounds" transform="matrix(1,0,0,1,0,0)"><svg viewBox="0 0 320 360" height="360" width="320"><g><svg></svg></g><g><svg viewBox="0 0 320 360" height="360" width="320"><g><path xmlns="http://www.w3.org/2000/svg" d="M20.961 227.22l3.726 4.658-1.863-6.056c-0.466-2.795-3.726 0.466-1.863 1.398M25.153 224.425c1.397 2.329 2.795 4.658 2.795 6.987 0 3.261 2.795 4.658 5.123 5.589-3.261-3.726-5.124-13.974-7.918-12.576M204.017 26.929c7.918 0 15.371-0.932 23.756 0.931 20.495 5.124 37.729 15.371 49.374 29.811l32.606 52.169c1.397 13.042 4.192 27.482 3.726 43.319 3.261 0 2.795-4.658 6.521-5.59-3.726 9.316-5.59 20.961-6.521 34.469-2.329-7.453 0-18.632 0.466-24.687-3.261 5.124-5.124 1.397-5.124-0.932 0.466-3.726-1.397-3.261-2.795-4.658-5.124-4.658-8.384-9.782-12.11-17.7 2.329-6.055 2.795-14.905-4.658-19.563-2.329-1.397-5.124-3.726-6.521-7.453-1.863-5.124-5.124-11.179-4.193-19.097 0.466-2.329-6.987 5.124-11.179 1.863-18.166-12.576-36.332-27.016-58.224-39.127-11.645 0-20.029-4.192-24.221-9.316-3.726-4.658-0.932-10.713 4.658-11.179 3.261 0 6.987-0.932 9.782 0.932 0.466-1.863 2.329-4.192 4.657-4.192M157.904 16.215l0.932 0.466c4.658 0.932 6.987 7.453 12.11 5.124 0 3.261 0.466 6.521-0.466 8.85-1.397 3.726-5.59 3.726-8.85 3.726-31.208-1.863-49.374 11.179-68.471 22.358-5.124 3.261-10.713 5.59-14.906 9.782-20.029 18.632-41.921 35.866-47.045 70.335l-4.192 38.195c-0.466 4.192-5.124 8.384-4.192 13.508l3.26 22.824c-3.261-3.261-5.124 0.932-4.192 2.795 0.466 1.397 2.329 6.055 5.124 1.863 3.726 6.987 7.453 20.495 12.576 26.55 15.837 18.632 36.332 35.4 53.101 52.169 4.192-0.932 7.453-0.932 8.384-3.727 1.397 2.795-1.397 5.59-3.726 6.056 7.453 4.658 15.837 8.85 27.016 9.781 14.44 0.932 27.948 3.261 40.524 6.522 6.521-1.863 13.042-2.795 20.029-3.261 2.329 0 3.726-3.726 6.521-4.658l0.466-4.658c2.795 4.192 2.329-1.397 0.466-4.192 3.261 2.795 4.192 5.124 5.589 6.987 0-1.397 3.726-6.521 3.727-0.466l0.931-6.055c1.397-0.932 1.863 5.124 3.261 0.931 1.397-4.192 4.192-0.932 6.987-2.329-0.932 1.863-0.466 5.59 2.794 3.261l3.727-3.261c2.329 5.59 6.055 3.261 7.918 2.329 20.495-13.042 40.99-28.413 60.553-43.784l-0.466 6.055 2.329-7.453c2.329 2.329 4.192 0.466 5.124-0.931 2.795-4.658 6.521-9.316 12.577-13.508-7.453 20.029-16.303 35.866-27.482 48.908l-4.658 5.59c0 3.261-0.932 7.453-4.658 7.918-1.863 0.466-5.59-0.932-8.384 1.863-1.397 1.863 3.261 5.59-0.466 2.795-3.261-2.329-6.521 0-10.248 0.932-2.795 0.932 1.863 3.726 2.795 5.589 0.932 1.863 1.863 3.726 1.398 6.056l-5.124-5.59c-6.055 3.261-9.782 9.316-14.906 13.974-2.329 1.863-1.397 5.124-1.397 7.918-3.261 0-6.987-0.932-8.85 0.932-1.397 1.863-0.932 4.658-0.932 7.453-4.658-0.466-5.124-7.453-9.315-6.056-4.192 0.932-8.85 1.397-12.577 3.727 2.795 5.59-4.658 2.329-3.726 3.26-6.987-4.192-13.042-7.453-20.495-4.658-15.837-5.124-35.4-2.795-49.84-0.931 0-2.329 0.466-4.658-0.466-5.124-0.932 2.329-3.726 1.397-3.26 1.397-8.85-6.055-17.7-9.782-27.016-14.905-8.384 0.932-16.303-3.261-18.632-5.59-6.521-6.055-13.974-2.795-20.029-4.192-13.042-3.261-17.7-16.769-19.098-26.084-0.932-4.658-4.658-6.521-6.055-6.056-6.055-19.563-15.371-37.263-22.824-55.429-1.863-4.658-1.397-9.316-1.397-14.44 2.329 0.932 4.658 0.466 4.192-2.794-2.329-15.371-7.918-27.016-13.974-38.195 3.261-15.837 3.726-34.469 11.179-48.443 6.521-12.576 18.632-19.098 27.016-29.811 2.795-3.726 2.795-8.85 5.59-12.11 9.316-9.316 18.632-19.098 28.879-27.482 4.658-3.726 10.247 0 17.234-1.397 2.329-8.384 11.645-15.837 20.495-13.508 3.726 0.932 11.179-8.85 13.508-9.782 3.726-1.397 1.863 3.726 1.863 6.987 8.85-6.987 20.961-10.713 32.14-14.906" fill="#ffffff" fill-rule="nonzero" stroke="none" stroke-width="1" stroke-linecap="butt" stroke-linejoin="miter" stroke-miterlimit="10" stroke-dasharray="" stroke-dashoffset="0" font-family="none" font-weight="none" font-size="none" text-anchor="none" style="mix-blend-mode: normal" data-fill-palette-color="tertiary"></path></g><g transform="matrix(1,0,0,1,64,110.5233644859813)"><svg viewBox="0 0 192 138.9532710280374" height="138.9532710280374" width="192"><g><svg viewBox="0 0 192 138.9532710280374" height="138.9532710280374" width="192"><g><svg viewBox="0 0 192 138.9532710280374" height="138.9532710280374" width="192"><g><svg viewBox="0 0 192 138.9532710280374" height="138.9532710280374" width="192"><g id="textblocktransform"><svg viewBox="0 0 192 138.9532710280374" height="138.9532710280374" width="192" id="textblock"><g><svg viewBox="0 0 192 138.9532710280374" height="138.9532710280374" width="192"><g transform="matrix(1,0,0,1,0,0)"><svg width="192" viewBox="-6.489999771118164 -50.83000183105469 83.58999633789062 60.5" height="138.9532710280374" data-palette-color="#f5ba41"><path d="M42.33-49.17L42.33-49.17Q41.65-48.49 40.97-47.83 40.28-47.17 39.89-46.19L39.89-46.19Q39.31-46.09 38.67-45.95 38.04-45.8 37.45-45.8L37.45-45.8Q37.06-45.8 36.67-45.92 36.28-46.04 35.89-46.04L35.89-46.04Q35.55-46.04 35.55-45.7 35.55-45.36 35.35-45.17L35.35-45.17Q34.96-45.31 34.52-45.36 34.08-45.41 33.64-45.41L33.64-45.41Q32.62-45.41 31.62-45.09 30.62-44.78 29.64-44.36 28.66-43.95 27.69-43.51 26.71-43.07 25.68-42.82L25.68-42.82Q25.73-42.77 25.73-42.58L25.73-42.58Q25.73-42.24 25.54-42.02 25.34-41.8 25.34-41.46L25.34-41.46 25.34-41.31Q25.93-40.04 26.51-38.87 27.1-37.7 27.64-36.43L27.64-36.43Q27.93-35.79 28.13-35.21 28.32-34.62 28.56-33.94L28.56-33.94Q28.66-33.54 28.91-33.42 29.15-33.3 29.39-33.06L29.39-33.06Q29.3-32.76 29.3-32.52L29.3-32.52Q29.3-31.59 29.74-30.74 30.18-29.88 30.18-29L30.18-29Q30.18-28.76 30.08-28.37L30.08-28.37Q30.66-27.54 30.91-26.46 31.15-25.39 31.35-24.29 31.54-23.19 31.76-22.14 31.98-21.09 32.57-20.26L32.57-20.26Q32.23-19.68 32.13-19.02 32.03-18.36 32.03-17.68L32.03-17.68Q32.03-16.11 32.35-14.53 32.67-12.94 32.67-11.38L32.67-11.38Q32.67-10.3 32.42-9.62L32.42-9.62Q32.52-8.89 32.91-8.54L32.91-8.54Q32.71-8.2 32.76-7.74 32.81-7.28 32.57-6.93L32.57-6.93Q32.81-5.96 32.81-5.13L32.81-5.13Q32.81-3.91 32.5-2.71 32.18-1.51 32.18-0.24L32.18-0.24Q32.18 0.1 32.23 0.42 32.28 0.73 32.42 1.12L32.42 1.12Q32.32 1.42 32.06 1.49 31.79 1.56 31.69 1.81L31.69 1.81 31.69 1.95Q31.69 2.69 31.52 3.25 31.35 3.81 31.1 4.3L31.1 4.3 30.66 5.32Q30.47 5.86 30.32 6.49L30.32 6.49Q29.05 7.18 27.91 7.81 26.76 8.45 25.68 9.52L25.68 9.52Q25.49 9.57 25.1 9.57L25.1 9.57Q24.76 9.57 24.41 9.55 24.07 9.52 23.68 9.52L23.68 9.52Q23.14 9.52 22.56 9.67L22.56 9.67Q21.78 8.94 20.65 8.62 19.53 8.3 18.55 7.76L18.55 7.76Q18.21 7.32 17.77 6.98L17.77 6.98 16.89 6.3Q16.46 5.96 16.06 5.62 15.67 5.27 15.38 4.74L15.38 4.74 14.7 4.74Q14.7 4.69 14.72 4.64 14.75 4.59 14.75 4.54L14.75 4.54Q14.75 4.3 14.5 4.25 14.26 4.2 14.36 3.91L14.36 3.91Q13.77 3.47 13.38 2.88 12.99 2.29 12.6 1.68 12.21 1.07 11.82 0.51 11.43-0.05 10.84-0.49L10.84-0.49 10.84-0.59Q10.84-0.83 10.69-0.9 10.55-0.98 10.64-1.37L10.64-1.37Q9.86-2.39 9.33-3.52 8.79-4.64 8.33-5.83 7.86-7.03 7.4-8.2 6.93-9.38 6.3-10.45L6.3-10.45Q6.2-10.94 6.2-11.43L6.2-11.43 6.2-12.4Q6.2-13.82 6.45-15.11 6.69-16.41 7.37-17.63L7.37-17.63Q7.76-17.72 8.28-17.7 8.79-17.68 9.23-17.68L9.23-17.68Q9.67-17.68 10.08-17.75 10.5-17.82 10.84-18.16L10.84-18.16Q10.79-17.97 10.94-17.9 11.08-17.82 11.23-17.82L11.23-17.82Q11.47-17.82 11.69-17.9 11.91-17.97 12.16-17.97L12.16-17.97Q12.26-17.97 12.43-17.92 12.6-17.87 12.6-17.63L12.6-17.63Q12.89-17.72 13.13-17.87 13.38-18.02 13.67-18.16L13.67-18.16Q14.5-17.43 15.63-17.07 16.75-16.7 17.92-16.38 19.09-16.06 20.21-15.7 21.34-15.33 22.22-14.65L22.22-14.65Q22.46-14.16 22.46-13.62L22.46-13.62Q22.46-12.79 21.78-12.18 21.09-11.57 20.31-11.33L20.31-11.33Q19.19-12.11 17.8-12.45 16.41-12.79 15.19-13.43L15.19-13.43Q14.21-13.04 13.06-13.01 11.91-12.99 10.84-12.89L10.84-12.89Q10.6-12.7 10.67-12.21 10.74-11.72 10.5-11.47L10.5-11.47Q11.13-9.57 12.16-7.79 13.18-6.01 14.01-4.15L14.01-4.15Q14.11-3.86 14.36-3.74 14.6-3.61 14.84-3.47L14.84-3.47 14.84-3.32Q14.84-3.03 14.99-2.91 15.14-2.78 15.04-2.39L15.04-2.39Q15.63-2.29 15.89-1.76 16.16-1.22 16.46-0.83L16.46-0.83Q16.65-0.59 16.87-0.39 17.09-0.2 17.29 0.05L17.29 0.05Q18.12 0.98 19.09 2 20.07 3.03 21.14 3.56L21.14 3.56Q21.29 3.66 21.41 3.66 21.53 3.66 21.68 3.71L21.68 3.71Q22.22 4 22.85 4.27 23.49 4.54 24.17 4.54L24.17 4.54Q24.51 4.54 24.88 4.39 25.24 4.25 25.34 3.91L25.34 3.91Q25.59 3.47 25.71 2.91 25.83 2.34 25.93 1.86L25.93 1.86Q26.32 0.44 26.68-0.98 27.05-2.39 27.29-3.81L27.29-3.81Q27.2-4.44 27.15-5.08 27.1-5.71 27.1-6.35L27.1-6.35Q27.1-7.47 27.17-8.59 27.25-9.72 27.25-10.84L27.25-10.84Q27.25-11.87 27.12-12.87 27-13.87 26.61-14.84L26.61-14.84Q26.71-15.04 26.86-15.14 27-15.23 27-15.48L27-15.48Q27-15.77 26.83-16.28 26.66-16.8 26.42-16.94L26.42-16.94Q26.76-17.43 26.76-18.16L26.76-18.16Q26.76-18.99 26.51-19.82 26.27-20.65 26.27-21.48L26.27-21.48Q26.27-22.02 26.42-22.56L26.42-22.56Q26.42-22.9 26.07-22.9 25.73-22.9 25.68-23.24L25.68-23.24Q25.68-23.34 25.71-23.44 25.73-23.54 25.73-23.63L25.73-23.63Q25.73-24.27 25.56-24.83 25.39-25.39 25.34-26.03L25.34-26.03Q24.9-26.51 24.71-27.25 24.51-27.98 24.32-28.74 24.12-29.49 23.88-30.18 23.63-30.86 23.1-31.3L23.1-31.3Q23.1-31.93 22.92-32.62 22.75-33.3 22.07-33.59L22.07-33.59Q21.78-34.72 21.29-35.69 20.8-36.67 19.97-37.45L19.97-37.45Q19.97-38.62 19.51-39.26 19.04-39.89 18.36-40.72L18.36-40.72Q17.24-40.63 16.11-40.28 14.99-39.94 13.87-39.94L13.87-39.94Q13.57-39.94 13.31-39.97 13.04-39.99 12.74-40.04L12.74-40.04Q12.5-39.89 12.45-39.58 12.4-39.26 12.4-39.01L12.4-39.01Q11.52-38.92 10.69-38.7 9.86-38.48 9.01-38.26 8.15-38.04 7.32-37.89 6.49-37.74 5.62-37.79L5.62-37.79Q5.27-37.11 4.64-36.89 4-36.67 3.3-36.57 2.59-36.47 1.9-36.33 1.22-36.18 0.83-35.69L0.83-35.69Q0.63-35.89 0.34-35.89L0.34-35.89Q-0.05-35.89-0.42-35.69-0.78-35.5-1.22-35.5L-1.22-35.5Q-1.56-35.5-1.76-35.69L-1.76-35.69Q-2.1-35.45-2.51-35.33-2.93-35.21-3.17-34.81L-3.17-34.81Q-4-34.96-4.64-35.45-5.27-35.94-5.69-36.62-6.1-37.3-6.3-38.11-6.49-38.92-6.49-39.7L-6.49-39.7Q-6.2-40.23-5.57-40.43-4.93-40.63-4.54-41.11L-4.54-41.11Q-4.2-40.97-3.88-40.84-3.56-40.72-3.17-40.72L-3.17-40.72Q-2.69-40.72-2.34-40.92-2-41.11-1.61-41.11L-1.61-41.11Q-1.37-41.11-1.07-40.97L-1.07-40.97Q-0.73-41.26-0.24-41.33 0.24-41.41 0.71-41.48 1.17-41.55 1.56-41.7 1.95-41.85 2.1-42.33L2.1-42.33Q2.54-42.19 3.03-42.19L3.03-42.19Q3.61-42.19 4.2-42.36 4.79-42.53 5.27-42.72 5.76-42.92 6.15-43.09 6.54-43.26 6.69-43.26L6.69-43.26Q6.93-43.26 7.18-43.14 7.42-43.02 7.67-43.02L7.67-43.02Q8.15-43.02 8.62-43.31 9.08-43.6 9.47-43.9L9.47-43.9Q9.86-43.7 10.21-43.7L10.21-43.7Q10.89-43.7 11.6-44.09 12.3-44.48 13.13-44.48L13.13-44.48Q13.48-44.48 13.67-44.43L13.67-44.43Q14.79-44.97 16.38-45.41 17.97-45.85 19.24-45.85L19.24-45.85Q19.92-46.44 20.85-46.68 21.78-46.92 22.75-47.07 23.73-47.22 24.68-47.46 25.63-47.71 26.42-48.29L26.42-48.29Q26.66-48.19 27-48.17 27.34-48.14 27.49-47.95L27.49-47.95Q27.73-48.05 27.83-48.29 27.93-48.54 27.98-48.78L27.98-48.78Q28.03-48.83 28.17-48.83L28.17-48.83Q28.42-48.83 28.37-48.63 28.32-48.44 28.56-48.44L28.56-48.44Q28.71-48.44 29.08-48.61 29.44-48.78 29.98-48.97 30.52-49.17 31.15-49.34 31.79-49.51 32.37-49.51L32.37-49.51 32.57-49.51 32.81-49.56Q33.06-49.66 33.35-49.73 33.64-49.8 33.91-49.9 34.18-50 34.28-50L34.28-50Q35.35-50.34 36.5-50.59 37.65-50.83 38.77-50.83L38.77-50.83Q39.84-50.83 40.77-50.46 41.7-50.1 42.33-49.17ZM77.1-34.42L77.1-34.42Q77.1-33.98 76.9-33.59L76.9-33.59 76.56-32.86Q76.41-32.52 76.27-32.13 76.12-31.74 76.17-31.2L76.17-31.2Q75.49-30.42 74.8-29.69 74.12-28.96 73.58-28.03L73.58-28.03Q73.04-28.08 72.78-27.78 72.51-27.49 72.36-27L72.36-27Q71.34-26.66 70.55-25.95 69.77-25.24 69.19-24.41L69.19-24.41Q66.6-23.34 64.35-21.78 62.11-20.21 60.25-18.12L60.25-18.12Q61.13-18.12 61.98-17.92 62.84-17.72 63.69-17.5 64.55-17.29 65.38-17.11 66.21-16.94 67.09-17.04L67.09-17.04Q67.72-16.46 68.53-16.06 69.33-15.67 70.14-15.33 70.94-14.99 71.7-14.55 72.46-14.11 73.04-13.48L73.04-13.48Q73.04-13.38 73.02-13.31 73-13.23 73-13.13L73-13.13Q73-12.74 73.19-12.38 73.39-12.01 73.39-11.62L73.39-11.62Q73.14-11.23 72.95-10.79 72.75-10.35 72.48-10.01 72.21-9.67 71.87-9.42 71.53-9.18 70.94-9.13L70.94-9.13Q70.7-8.3 70.16-7.84 69.63-7.37 68.97-7.01 68.31-6.64 67.67-6.27 67.04-5.91 66.6-5.32L66.6-5.32Q65.13-4.98 63.74-4.37 62.35-3.76 61.28-2.64L61.28-2.64Q60.54-2.54 59.79-2.42 59.03-2.29 58.3-2.29L58.3-2.29Q57.27-2.29 56.64-2.71 56-3.13 55.91-4.25L55.91-4.25Q56.05-4.59 56.35-4.83L56.35-4.83 56.98-5.32Q57.32-5.57 57.59-5.83 57.86-6.1 58.01-6.49L58.01-6.49Q58.1-6.49 58.25-6.47 58.4-6.45 58.54-6.45L58.54-6.45Q59.13-6.45 59.47-6.69 59.81-6.93 60.13-7.18 60.45-7.42 60.84-7.62 61.23-7.81 61.86-7.76L61.86-7.76Q62.2-8.4 62.89-8.72 63.57-9.03 64.3-9.3 65.04-9.57 65.7-9.94 66.35-10.3 66.6-11.04L66.6-11.04Q66.35-11.43 65.96-11.65 65.57-11.87 65.09-12.01L65.09-12.01 64.16-12.3Q63.72-12.45 63.38-12.65L63.38-12.65Q62.84-12.5 62.35-12.5L62.35-12.5Q61.33-12.5 60.35-12.7 59.37-12.89 58.35-12.89L58.35-12.89Q57.42-12.89 56.74-12.65L56.74-12.65Q56.49-12.7 56.22-12.79 55.95-12.89 55.71-12.99L55.71-12.99Q54.59-12.55 53.37-12.55L53.37-12.55 50.19-12.55Q49.8-12.55 49.41-12.45L49.41-12.45Q48.87-11.47 48.87-10.35L48.87-10.35Q48.87-9.52 49.12-8.76 49.36-8.01 49.61-7.18L49.61-7.18Q50.58-6.3 51.41-5.1 52.24-3.91 52.24-2.49L52.24-2.49Q52.24-2.15 52.19-1.95L52.19-1.95Q51.71-2.29 50.93-2.29L50.93-2.29Q50.24-2.29 49.63-2.1 49.02-1.9 48.34-1.81L48.34-1.81Q47.8-2.05 47.21-2.32 46.63-2.59 46.09-2.98L46.09-2.98Q45.7-3.81 45.31-4.57 44.92-5.32 44.33-6.01L44.33-6.01 44.33-6.2Q44.33-7.91 44.06-9.57 43.8-11.23 43.8-12.94L43.8-12.94Q43.8-13.72 43.87-14.53 43.94-15.33 44.33-16.02L44.33-16.02Q44.19-17.19 44.19-18.46L44.19-18.46Q44.19-21 44.48-23.54 44.77-26.07 44.77-28.71L44.77-28.71Q44.77-29.25 44.75-29.79 44.72-30.32 44.68-30.86L44.68-30.86 44.48-30.86Q43.85-30.86 43.26-30.69 42.67-30.52 42.09-30.32 41.5-30.13 40.87-29.96 40.23-29.79 39.6-29.79L39.6-29.79Q39.21-29.59 38.96-29.39 38.72-29.2 38.47-29.05 38.23-28.91 37.91-28.81 37.6-28.71 37.16-28.76L37.16-28.76Q36.62-28.42 36.3-28.25 35.98-28.08 35.4-27.88L35.4-27.88Q35.1-27.78 34.91-27.59L34.91-27.59 34.52-27.25Q34.32-27.1 34.08-26.95 33.84-26.81 33.44-26.81L33.44-26.81Q33.1-26.81 32.96-26.86L32.96-26.86Q32.66-27.1 32.44-27.44 32.22-27.78 32-28.1 31.78-28.42 31.52-28.69 31.25-28.96 30.86-29.1L30.86-29.1Q31.05-29.35 31.03-29.52 31-29.69 31-29.93L31-29.93Q31-30.08 31.05-30.13L31.05-30.13Q31.3-31.01 31.93-31.52 32.57-32.03 33.35-32.35 34.13-32.67 34.93-32.91 35.74-33.15 36.42-33.5L36.42-33.5Q38.33-33.45 39.89-33.86 41.45-34.28 43.11-35.06L43.11-35.06Q43.41-34.91 43.7-34.91L43.7-34.91Q43.94-34.91 44.19-34.96L44.19-34.96 44.68-35.06Q45.26-35.55 45.94-35.69 46.63-35.84 47.31-35.94 48-36.04 48.63-36.16 49.27-36.28 49.75-36.67L49.75-36.67 49.95-36.67Q51.12-36.67 52.32-37.06 53.51-37.45 54.64-37.35L54.64-37.35Q55.61-37.89 56.44-38.04 57.27-38.18 58.35-38.18L58.35-38.18Q58.59-38.18 58.93-38.4 59.27-38.62 59.76-38.62L59.76-38.62Q59.86-38.62 59.93-38.6 60.01-38.57 60.1-38.57L60.1-38.57Q60.54-38.57 60.72-38.87 60.89-39.16 61.62-39.16L61.62-39.16Q61.96-39.16 62.25-39.14 62.55-39.11 62.84-39.11L62.84-39.11Q63.18-39.11 63.28-39.38 63.38-39.65 63.72-39.6L63.72-39.6Q63.86-39.4 64.21-39.43 64.55-39.45 64.74-39.45L64.74-39.45Q65.09-39.45 65.13-39.26L65.13-39.26Q65.92-39.75 66.87-39.89 67.82-40.04 68.7-40.04L68.7-40.04Q69.04-40.04 69.38-40.01 69.72-39.99 70.11-39.94L70.11-39.94Q70.55-40.23 71.14-40.23L71.14-40.23Q71.48-40.23 72.24-39.94 73-39.65 73.83-39.26 74.66-38.87 75.34-38.43 76.02-37.99 76.17-37.7L76.17-37.7Q76.27-37.6 76.29-37.26 76.32-36.91 76.41-36.67L76.41-36.67Q76.66-36.08 76.88-35.57 77.1-35.06 77.1-34.42ZM71.68-33.89L71.68-33.89Q71.68-33.98 71.65-34.11 71.63-34.23 71.63-34.33L71.63-34.33Q71.38-34.62 70.97-34.77 70.55-34.91 70.09-35.01 69.63-35.11 69.16-35.18 68.7-35.25 68.36-35.4L68.36-35.4Q67.33-35.06 66.11-35.06L66.11-35.06Q64.99-35.06 64.11-35.4L64.11-35.4Q63.67-34.96 62.99-34.72 62.3-34.47 61.55-34.35 60.79-34.23 60.03-34.2 59.27-34.18 58.69-34.18L58.69-34.18Q58.49-34.18 58.01-33.89 57.52-33.59 57.13-33.59L57.13-33.59Q56.83-33.59 56.59-33.84L56.59-33.84Q56.15-33.5 55.37-33.25 54.59-33.01 53.76-32.84 52.93-32.67 52.07-32.47 51.22-32.28 50.63-32.08L50.63-32.08Q50.05-30.81 50-29.32 49.95-27.83 49.95-26.42L49.95-26.42Q49.95-25.59 49.85-24.8 49.75-24.02 49.75-23.19L49.75-23.19Q49.75-22.8 49.8-22.39 49.85-21.97 50.1-21.58L50.1-21.58Q49.7-21.29 49.58-20.83 49.46-20.36 49.46-19.92L49.46-19.92Q49.46-19.38 49.56-18.95 49.66-18.51 49.75-18.12L49.75-18.12Q51.32-18.26 52.61-18.7 53.9-19.14 55.05-19.78 56.2-20.41 57.27-21.24 58.35-22.07 59.52-23L59.52-23Q60.01-23.1 60.32-23.29 60.64-23.49 61.13-23.49L61.13-23.49Q61.33-24.17 61.86-24.44 62.4-24.71 62.69-25.24L62.69-25.24Q63.28-25.39 63.69-25.66 64.11-25.93 64.5-26.2 64.89-26.46 65.35-26.71 65.82-26.95 66.4-27L66.4-27Q67.23-27.98 68.14-28.96 69.04-29.93 70.26-30.52L70.26-30.52Q70.46-31.01 70.7-31.37 70.94-31.74 71.16-32.1 71.38-32.47 71.53-32.89 71.68-33.3 71.68-33.89Z" opacity="1" transform="matrix(1,0,0,1,0,0)" fill="#ffffff" class="wordmark-text-0" data-fill-palette-color="primary" id="text-0"></path></svg></g></svg></g></svg></g></svg></g><g></g></svg></g></svg></g></svg></g></svg></g><defs></defs></svg><rect width="320" height="360" fill="none" stroke="none" visibility="hidden"></rect></g></svg></g></svg>